<svg width="250" height="38" viewBox="0 0 250 38" fill="none" xmlns="http://www.w3.org/2000/svg">
<rect width="250" height="38" fill="#1D4646"/>
<path d="M15.5507 10.585H27.7597L27.2957 12.789H21.3507L20.2197 18.096H25.1787L24.7147 20.329H19.7557L17.8997 29H11.6357L15.5507 10.585ZM41.769 29H34.983L34.577 24.389H29.212L27.153 29H24.34L32.895 10.585H39.768L41.769 29ZM30.169 22.272H34.374L33.707 14.384L30.169 22.272ZM50.2823 29H44.0183L47.9333 10.585H54.2263L50.2823 29ZM72.4143 14.964C72.4143 16.1047 72.0953 17.1583 71.4573 18.125C70.8193 19.0917 69.7656 19.8263 68.2963 20.329L71.6603 29H65.1933L62.6413 20.967H62.3223L60.6113 29H54.3473L58.2623 10.585H65.8893C66.7786 10.585 67.6196 10.643 68.4123 10.759C69.2049 10.8557 69.8913 11.0683 70.4713 11.397C71.0706 11.7063 71.5443 12.151 71.8923 12.731C72.2403 13.2917 72.4143 14.036 72.4143 14.964ZM64.0623 19.111C64.5649 19.111 64.9903 18.9467 65.3383 18.618C65.7056 18.27 65.9956 17.8543 66.2083 17.371C66.4403 16.8877 66.6046 16.3753 66.7013 15.834C66.7979 15.2733 66.8463 14.79 66.8463 14.384C66.8463 13.8813 66.7593 13.456 66.5853 13.108C66.4113 12.7407 66.0343 12.557 65.4543 12.557H64.1493L62.6993 19.111H64.0623ZM89.9572 10.585H102.166L101.702 12.789H95.7572L94.6262 18.096H99.5852L99.1212 20.329H94.1622L92.3062 29H86.0422L89.9572 10.585ZM116.175 29H109.389L108.983 24.389H103.618L101.559 29H98.7465L107.301 10.585H114.174L116.175 29ZM104.575 22.272H108.78L108.113 14.384L104.575 22.272ZM129.624 15.921C129.682 15.631 129.711 15.2347 129.711 14.732C129.711 14.442 129.692 14.1617 129.653 13.891C129.615 13.601 129.547 13.3497 129.45 13.137C129.354 12.905 129.209 12.731 129.015 12.615C128.822 12.4797 128.571 12.412 128.261 12.412C127.913 12.412 127.594 12.4893 127.304 12.644C127.014 12.7987 126.753 13.0017 126.521 13.253C126.309 13.485 126.135 13.7653 125.999 14.094C125.883 14.4033 125.825 14.732 125.825 15.08C125.825 15.5827 125.951 15.9693 126.202 16.24C126.473 16.5107 126.821 16.733 127.246 16.907C127.672 17.081 128.155 17.226 128.696 17.342C129.238 17.458 129.798 17.5933 130.378 17.748C130.862 17.8833 131.345 18.0573 131.828 18.27C132.312 18.4827 132.737 18.7727 133.104 19.14C133.491 19.488 133.8 19.952 134.032 20.532C134.264 21.0927 134.38 21.7983 134.38 22.649C134.38 23.867 134.139 24.8917 133.655 25.723C133.172 26.5543 132.505 27.231 131.654 27.753C130.804 28.275 129.789 28.652 128.609 28.884C127.449 29.116 126.183 29.232 124.81 29.232C123.418 29.232 122.278 29.145 121.388 28.971C120.518 28.7777 119.832 28.5747 119.329 28.362C118.73 28.1107 118.285 27.8207 117.995 27.492L118.981 23.519H124.085C124.066 23.693 124.047 23.9347 124.027 24.244C124.008 24.534 123.998 24.766 123.998 24.94C123.998 25.172 124.027 25.4137 124.085 25.665C124.143 25.9163 124.23 26.1483 124.346 26.361C124.482 26.5737 124.665 26.7477 124.897 26.883C125.129 27.0183 125.419 27.086 125.767 27.086C126.154 27.086 126.492 26.999 126.782 26.825C127.092 26.651 127.343 26.4383 127.536 26.187C127.749 25.9163 127.904 25.6263 128 25.317C128.116 24.9883 128.174 24.6693 128.174 24.36C128.174 23.9347 128.068 23.577 127.855 23.287C127.662 22.997 127.391 22.7553 127.043 22.562C126.695 22.3493 126.289 22.1753 125.825 22.04C125.381 21.8853 124.917 21.7307 124.433 21.576C123.969 21.4407 123.476 21.2763 122.954 21.083C122.452 20.8897 121.988 20.619 121.562 20.271C121.137 19.923 120.779 19.488 120.489 18.966C120.219 18.4247 120.083 17.7383 120.083 16.907C120.083 15.6697 120.393 14.6353 121.011 13.804C121.649 12.9533 122.442 12.267 123.389 11.745C124.356 11.223 125.41 10.8557 126.55 10.643C127.691 10.411 128.774 10.295 129.798 10.295C131.152 10.295 132.312 10.4593 133.278 10.788C134.264 11.0973 135.009 11.4647 135.511 11.89L134.438 15.921H129.624ZM153.467 12.789H148.798L145.347 29H139.083L142.534 12.789H137.923L138.445 10.585H153.96L153.467 12.789ZM156.676 10.585H168.885L168.421 12.789H162.505L161.287 18.386H166.246L165.782 20.561H160.823L159.489 26.767H165.405L164.97 29H152.761L156.676 10.585ZM183.673 29H176.887L173.668 15.689L170.826 29H168.216L172.131 10.585H179.062L182.107 24.07L184.978 10.585H187.646L183.673 29ZM191.665 10.585H203.874L203.41 12.789H197.494L196.276 18.386H201.235L200.771 20.561H195.812L194.478 26.767H200.394L199.959 29H187.75L191.665 10.585ZM221.271 14.964C221.271 16.1047 220.952 17.1583 220.314 18.125C219.676 19.0917 218.623 19.8263 217.153 20.329L220.517 29H214.05L211.498 20.967H211.179L209.468 29H203.204L207.119 10.585H214.746C215.636 10.585 216.477 10.643 217.269 10.759C218.062 10.8557 218.748 11.0683 219.328 11.397C219.928 11.7063 220.401 12.151 220.749 12.731C221.097 13.2917 221.271 14.036 221.271 14.964ZM212.919 19.111C213.422 19.111 213.847 18.9467 214.195 18.618C214.563 18.27 214.853 17.8543 215.065 17.371C215.297 16.8877 215.462 16.3753 215.558 15.834C215.655 15.2733 215.703 14.79 215.703 14.384C215.703 13.8813 215.616 13.456 215.442 13.108C215.268 12.7407 214.891 12.557 214.311 12.557H213.006L211.556 19.111H212.919ZM233.852 15.921C233.91 15.631 233.939 15.2347 233.939 14.732C233.939 14.442 233.92 14.1617 233.881 13.891C233.842 13.601 233.775 13.3497 233.678 13.137C233.581 12.905 233.436 12.731 233.243 12.615C233.05 12.4797 232.798 12.412 232.489 12.412C232.141 12.412 231.822 12.4893 231.532 12.644C231.242 12.7987 230.981 13.0017 230.749 13.253C230.536 13.485 230.362 13.7653 230.227 14.094C230.111 14.4033 230.053 14.732 230.053 15.08C230.053 15.5827 230.179 15.9693 230.43 16.24C230.701 16.5107 231.049 16.733 231.474 16.907C231.899 17.081 232.383 17.226 232.924 17.342C233.465 17.458 234.026 17.5933 234.606 17.748C235.089 17.8833 235.573 18.0573 236.056 18.27C236.539 18.4827 236.965 18.7727 237.332 19.14C237.719 19.488 238.028 19.952 238.26 20.532C238.492 21.0927 238.608 21.7983 238.608 22.649C238.608 23.867 238.366 24.8917 237.883 25.723C237.4 26.5543 236.733 27.231 235.882 27.753C235.031 28.275 234.016 28.652 232.837 28.884C231.677 29.116 230.411 29.232 229.038 29.232C227.646 29.232 226.505 29.145 225.616 28.971C224.746 28.7777 224.06 28.5747 223.557 28.362C222.958 28.1107 222.513 27.8207 222.223 27.492L223.209 23.519H228.313C228.294 23.693 228.274 23.9347 228.255 24.244C228.236 24.534 228.226 24.766 228.226 24.94C228.226 25.172 228.255 25.4137 228.313 25.665C228.371 25.9163 228.458 26.1483 228.574 26.361C228.709 26.5737 228.893 26.7477 229.125 26.883C229.357 27.0183 229.647 27.086 229.995 27.086C230.382 27.086 230.72 26.999 231.01 26.825C231.319 26.651 231.571 26.4383 231.764 26.187C231.977 25.9163 232.131 25.6263 232.228 25.317C232.344 24.9883 232.402 24.6693 232.402 24.36C232.402 23.9347 232.296 23.577 232.083 23.287C231.89 22.997 231.619 22.7553 231.271 22.562C230.923 22.3493 230.517 22.1753 230.053 22.04C229.608 21.8853 229.144 21.7307 228.661 21.576C228.197 21.4407 227.704 21.2763 227.182 21.083C226.679 20.8897 226.215 20.619 225.79 20.271C225.365 19.923 225.007 19.488 224.717 18.966C224.446 18.4247 224.311 17.7383 224.311 16.907C224.311 15.6697 224.62 14.6353 225.239 13.804C225.877 12.9533 226.67 12.267 227.617 11.745C228.584 11.223 229.637 10.8557 230.778 10.643C231.919 10.411 233.001 10.295 234.026 10.295C235.379 10.295 236.539 10.4593 237.506 10.788C238.492 11.0973 239.236 11.4647 239.739 11.89L238.666 15.921H233.852Z" fill="white"/>
</svg>
