<svg width="133" height="38" viewBox="0 0 133 38" fill="none" xmlns="http://www.w3.org/2000/svg">
<rect width="133" height="38" fill="#1D4646"/>
<g filter="url(#filter0_d_2013_166)">
<path d="M16.6428 29H10.3788L14.2938 10.585H20.5868L16.6428 29ZM36.1648 29H29.3788L26.1597 15.689L23.3177 29H20.7077L24.6227 10.585H31.5537L34.5988 24.07L37.4697 10.585H40.1377L36.1648 29ZM42.6188 10.585H49.2308L50.2168 23.055L56.2488 10.585H59.1198L50.5358 29H43.6918L42.6188 10.585ZM69.5123 10.295C71.1749 10.295 72.5186 10.5077 73.5433 10.933C74.5873 11.3583 75.4089 12.0157 76.0083 12.905C76.3949 13.5043 76.6946 14.181 76.9073 14.935C77.1199 15.689 77.2263 16.559 77.2263 17.545C77.2263 18.3957 77.1489 19.2463 76.9943 20.097C76.8396 20.9477 76.6173 21.7693 76.3273 22.562C76.0566 23.3353 75.7183 24.07 75.3123 24.766C74.9256 25.4427 74.4906 26.042 74.0073 26.564C73.0986 27.55 72.0449 28.246 70.8463 28.652C69.6669 29.0387 68.2073 29.232 66.4673 29.232C64.7853 29.232 63.4319 29.058 62.4073 28.71C61.3826 28.362 60.5706 27.8013 59.9713 27.028C59.5459 26.4867 59.2076 25.8003 58.9563 24.969C58.7243 24.1377 58.6083 23.0937 58.6083 21.837C58.6083 19.691 58.9853 17.777 59.7393 16.095C60.5126 14.3937 61.6049 13.05 63.0163 12.064C63.8669 11.4647 64.8143 11.02 65.8583 10.73C66.9023 10.44 68.1203 10.295 69.5123 10.295ZM66.2353 27.202C66.6799 27.202 67.0956 27.0087 67.4823 26.622C67.8883 26.216 68.2556 25.6843 68.5843 25.027C68.9323 24.3503 69.2416 23.5867 69.5123 22.736C69.8023 21.8853 70.0439 21.0057 70.2373 20.097C70.4306 19.1883 70.5756 18.2893 70.6723 17.4C70.7883 16.4913 70.8463 15.6697 70.8463 14.935C70.8463 13.9297 70.7399 13.2433 70.5273 12.876C70.3339 12.4893 70.0439 12.296 69.6573 12.296C69.2126 12.296 68.7873 12.4893 68.3813 12.876C67.9753 13.2627 67.5886 13.7847 67.2213 14.442C66.8733 15.08 66.5543 15.8243 66.2643 16.675C65.9936 17.5063 65.7519 18.3667 65.5393 19.256C65.3459 20.1453 65.1913 21.025 65.0753 21.895C64.9786 22.765 64.9303 23.5673 64.9303 24.302C64.9303 25.404 65.0463 26.1677 65.2783 26.593C65.5296 26.999 65.8486 27.202 66.2353 27.202ZM84.5798 29H78.3158L82.2308 10.585H88.5238L84.5798 29ZM105.001 27.434C104.517 27.666 104.015 27.898 103.493 28.13C102.99 28.3427 102.449 28.536 101.869 28.71C101.289 28.8647 100.651 28.9903 99.9548 29.087C99.2781 29.1837 98.5338 29.232 97.7218 29.232C95.1311 29.232 93.1301 28.652 91.7188 27.492C90.3268 26.332 89.6308 24.3987 89.6308 21.692C89.6308 20.126 89.8724 18.6567 90.3558 17.284C90.8391 15.892 91.5544 14.6837 92.5018 13.659C93.4491 12.615 94.6188 11.7933 96.0108 11.194C97.4028 10.5947 98.9978 10.295 100.796 10.295C101.646 10.295 102.42 10.353 103.116 10.469C103.831 10.585 104.469 10.7397 105.03 10.933C105.61 11.107 106.122 11.3003 106.567 11.513C107.031 11.7257 107.446 11.9287 107.814 12.122L106.77 17.516H101.55C101.569 17.3227 101.588 17.0713 101.608 16.762C101.646 16.4527 101.675 16.1433 101.695 15.834C101.714 15.5053 101.733 15.1863 101.753 14.877C101.772 14.5677 101.782 14.3067 101.782 14.094C101.782 13.9393 101.772 13.7653 101.753 13.572C101.733 13.3593 101.685 13.1563 101.608 12.963C101.53 12.7697 101.405 12.615 101.231 12.499C101.076 12.3637 100.863 12.296 100.593 12.296C100.09 12.296 99.6261 12.5087 99.2008 12.934C98.7948 13.34 98.4275 13.891 98.0988 14.587C97.7701 15.2637 97.4801 16.037 97.2288 16.907C96.9775 17.777 96.7648 18.6663 96.5908 19.575C96.4361 20.4643 96.3104 21.344 96.2138 22.214C96.1364 23.084 96.0978 23.8477 96.0978 24.505C96.0978 24.6983 96.1074 24.94 96.1268 25.23C96.1461 25.52 96.2041 25.8003 96.3008 26.071C96.3975 26.3417 96.5425 26.5737 96.7358 26.767C96.9485 26.9603 97.2288 27.057 97.5768 27.057C98.1761 27.057 98.7561 26.6897 99.3168 25.955C99.8775 25.201 100.37 23.867 100.796 21.953H106.161L105.001 27.434ZM111.951 10.585H124.16L123.696 12.789H117.78L116.562 18.386H121.521L121.057 20.561H116.098L114.764 26.767H120.68L120.245 29H108.036L111.951 10.585Z" fill="white"/>
</g>
<defs>
<filter id="filter0_d_2013_166" x="6.37877" y="10.295" width="121.781" height="26.937" filterUnits="userSpaceOnUse" color-interpolation-filters="sRGB">
<feFlood flood-opacity="0" result="BackgroundImageFix"/>
<feColorMatrix in="SourceAlpha" type="matrix" values="0 0 0 0 0 0 0 0 0 0 0 0 0 0 0 0 0 0 127 0" result="hardAlpha"/>
<feOffset dy="4"/>
<feGaussianBlur stdDeviation="2"/>
<feComposite in2="hardAlpha" operator="out"/>
<feColorMatrix type="matrix" values="0 0 0 0 0 0 0 0 0 0 0 0 0 0 0 0 0 0 0.25 0"/>
<feBlend mode="normal" in2="BackgroundImageFix" result="effect1_dropShadow_2013_166"/>
<feBlend mode="normal" in="SourceGraphic" in2="effect1_dropShadow_2013_166" result="shape"/>
</filter>
</defs>
</svg>
